<svg xmlns="http://www.w3.org/2000/svg" width="28.054" height="44.325" viewBox="0 0 28.054 44.325">
  <g id="AIQUA" transform="translate(-344.911 -237.497)">
    <g id="Group_1" data-name="Group 1" transform="translate(347.449 275.209)">
      <path id="Path_1" data-name="Path 1" d="M377.333,660.669h-1.091v-1.091h-2.183v1.091h-1.088V657.4a2.126,2.126,0,0,1,.171-.85,2.22,2.22,0,0,1,.466-.694,2.179,2.179,0,0,1,.692-.468,2.2,2.2,0,0,1,1.7,0,2.189,2.189,0,0,1,1.162,1.162,2.126,2.126,0,0,1,.171.85v3.27Zm-1.091-2.179V657.4a1.065,1.065,0,0,0-.086-.424,1.089,1.089,0,0,0-.582-.582,1.094,1.094,0,0,0-.848,0,1.089,1.089,0,0,0-.582.582,1.064,1.064,0,0,0-.086.424v1.091Z" transform="translate(-372.972 -655.148)" fill="#fff"/>
      <path id="Path_2" data-name="Path 2" d="M432.753,660.669h-1.091v-5.453h1.091Z" transform="translate(-426.353 -655.148)" fill="#fff"/>
      <path id="Path_3" data-name="Path 3" d="M456.54,661.072H455.3l-.654-.981a.715.715,0,0,1-.1.008h-.093a2.754,2.754,0,0,1-.747-.1,2.84,2.84,0,0,1-1.973-1.973,2.829,2.829,0,0,1,0-1.5,2.793,2.793,0,0,1,.285-.673,2.877,2.877,0,0,1,.443-.57,2.793,2.793,0,0,1,.572-.441,2.881,2.881,0,0,1,.673-.283,2.829,2.829,0,0,1,1.5,0,2.814,2.814,0,0,1,1.968,1.968,2.811,2.811,0,0,1-.011,1.532,2.848,2.848,0,0,1-1.462,1.749Zm-.354-3.795a1.687,1.687,0,0,0-.137-.675,1.729,1.729,0,0,0-.922-.922,1.738,1.738,0,0,0-1.352,0,1.783,1.783,0,0,0-.551.371,1.735,1.735,0,0,0-.373.551,1.687,1.687,0,0,0-.137.675,1.66,1.66,0,0,0,.137.671,1.757,1.757,0,0,0,.924.922,1.737,1.737,0,0,0,1.352,0,1.737,1.737,0,0,0,.551-.373,1.789,1.789,0,0,0,.371-.549A1.66,1.66,0,0,0,456.187,657.277Z" transform="translate(-444.517 -654.459)" fill="#fff"/>
      <path id="Path_4" data-name="Path 4" d="M525.572,658.49a2.127,2.127,0,0,1-.171.85,2.183,2.183,0,0,1-.468.692,2.219,2.219,0,0,1-.694.466,2.2,2.2,0,0,1-1.7,0,2.175,2.175,0,0,1-1.158-1.158,2.127,2.127,0,0,1-.171-.85v-3.274H522.3v3.274a1.052,1.052,0,0,0,.086.422,1.1,1.1,0,0,0,.582.58,1.093,1.093,0,0,0,.848,0,1.1,1.1,0,0,0,.582-.58,1.052,1.052,0,0,0,.086-.422v-3.274h1.091Z" transform="translate(-507.803 -655.148)" fill="#fff"/>
      <path id="Path_5" data-name="Path 5" d="M583.168,660.669h-1.091v-1.091h-2.182v1.091h-1.088V657.4a2.127,2.127,0,0,1,.171-.85,2.22,2.22,0,0,1,.466-.694,2.182,2.182,0,0,1,.692-.468,2.2,2.2,0,0,1,1.7,0A2.19,2.19,0,0,1,583,656.549a2.127,2.127,0,0,1,.171.85Zm-1.091-2.179V657.4a1.065,1.065,0,0,0-.085-.424,1.089,1.089,0,0,0-.582-.582,1.094,1.094,0,0,0-.848,0,1.088,1.088,0,0,0-.582.582,1.063,1.063,0,0,0-.086.424v1.091Z" transform="translate(-560.19 -655.148)" fill="#fff"/>
    </g>
    <g id="Group_3" data-name="Group 3" transform="translate(344.911 237.497)">
      <path id="Path_19" data-name="Path 19" d="M357.511,271.06c-6.831-19.891.044-32,1.015-33.563a5.746,5.746,0,0,0-2.691.894l-.681.436c-2.307,8.139-1.358,24.614-1.358,24.614-2.886-8.876-1.7-20.784-1.473-22.8l-4.764,3.051a5.752,5.752,0,0,0-2.649,4.844v11.677a5.752,5.752,0,0,0,2.649,4.844l2.811,1.8a1.229,1.229,0,0,1-.073-.133,55.668,55.668,0,0,1,0-13.034s.647,10.974,2.923,14.807l2.614,1.86a5.743,5.743,0,0,0,1.675.729" transform="translate(-344.912 -237.497)" fill="#fff"/>
      <path id="Path_20" data-name="Path 20" d="M487.487,257.154l-1.722-1.1a31.071,31.071,0,0,0-3.367,4.991c-.3.566-.762,1.511-1.677,3.4-.487,1.006-.917,1.913-1.421,3.088-.254.594-.435,1.038-.52,1.249q-.808,1.995-1.617,3.989a40.031,40.031,0,0,1,3.768-13.3,39.124,39.124,0,0,1,1.9-3.455l.842-1.307a9.659,9.659,0,0,0-3.761-2.409q-.316.632-.613,1.256l0,.008h0c-6.019,12.621-6.6,22.773-4.328,30.96l.026.094a5.973,5.973,0,0,0,3.122-.249,5.662,5.662,0,0,0,1.1-.55l8.275-5.3a5.752,5.752,0,0,0,2.649-4.844V262A5.752,5.752,0,0,0,487.487,257.154Z" transform="translate(-462.083 -250.96)" fill="#fff"/>
    </g>
  </g>
</svg>
