<?xml version="1.0" encoding="UTF-8"?>
<svg id="Layer_1" data-name="Layer 1" xmlns="http://www.w3.org/2000/svg" viewBox="0 0 1000 1000">
  <defs>
    <style>
      .cls-1 {
        fill: #494744;
      }

      .cls-1, .cls-2, .cls-3 {
        stroke-width: 0px;
      }

      .cls-2 {
        fill: #084571;
      }

      .cls-3 {
        fill: #02aae4;
      }
    </style>
  </defs>
  <g>
    <path class="cls-2" d="m421.1933,715.50348h-12.0659v-12.0659h-24.13179v12.0659h-12.02386v-36.15565c0-3.33529.63062-6.46738,1.89187-9.39626s2.97794-5.48641,5.15008-7.67256,4.72266-3.90986,7.65154-5.1711,6.06098-1.89187,9.39626-1.89187,6.46738.63062,9.39626,1.89187,5.48641,2.98494,7.67256,5.1711,3.90986,4.74368,5.1711,7.67256,1.89187,6.06098,1.89187,9.39626v36.15565Zm-12.0659-24.08975v-12.0659c0-1.65363-.31531-3.21617-.94593-4.68762s-1.49247-2.75372-2.58555-3.84679-2.37534-1.95493-3.84679-2.58555-3.03399-.94593-4.68762-.94593-3.21617.31531-4.68762.94593-2.75372,1.49247-3.84679,2.58555-1.95493,2.37534-2.58555,3.84679-.94593,3.03399-.94593,4.68762v12.0659h24.13179Z"/>
    <path class="cls-2" d="m443.72752,715.50348h-12.0659v-60.28744h12.0659v60.28744Z"/>
    <path class="cls-2" d="m505.90682,727.56937h-13.70551l-7.23113-10.84669c-.39239.05606-.76375.08408-1.1141.08408h-1.03002c-2.85882,0-5.61253-.37137-8.26115-1.1141s-5.12906-1.79377-7.44134-3.15311-4.42136-2.99195-6.32724-4.89783-3.53849-4.01496-4.89783-6.32724-2.41038-4.79273-3.15311-7.44134-1.1141-5.40233-1.1141-8.26115.37137-5.61954,1.1141-8.28217,1.79377-5.14307,3.15311-7.44134,2.99195-4.40034,4.89783-6.30622,4.01496-3.53148,6.32724-4.87681,4.79273-2.38936,7.44134-3.13209,5.40233-1.1141,8.26115-1.1141,5.61954.37137,8.28217,1.1141,5.14307,1.78676,7.44134,3.13209,4.40034,2.97093,6.30622,4.87681,3.53148,4.00795,4.87681,6.30622,2.38936,4.77871,3.13209,7.44134,1.1141,5.42335,1.1141,8.28217c0,2.97093-.41341,5.85778-1.24022,8.66054s-1.99697,5.41634-3.51046,7.84073-3.3423,4.61755-5.48641,6.57949-4.53347,3.60155-7.16807,4.91885l9.3332,13.95776Zm-3.90986-41.95737c0-2.6346-.5045-5.12205-1.51349-7.46236s-2.37534-4.37231-4.09904-6.09601-3.7557-3.09005-6.09601-4.09904-4.82776-1.51349-7.46236-1.51349c-2.66263,0-5.15708.5045-7.48338,1.51349s-4.3583,2.37534-6.09601,4.09904-3.11107,3.7557-4.12006,6.09601-1.51349,4.82776-1.51349,7.46236.5045,5.10804,1.51349,7.42032,2.38235,4.33728,4.12006,6.07499,3.76972,3.11107,6.09601,4.12006,4.82075,1.51349,7.48338,1.51349c2.6346,0,5.12205-.5045,7.46236-1.51349s4.37231-2.38235,6.09601-4.12006,3.09005-3.76271,4.09904-6.07499,1.51349-4.78572,1.51349-7.42032Z"/>
    <path class="cls-2" d="m569.43146,691.41372c0,3.33529-.63062,6.46738-1.89187,9.39626s-2.98494,5.4794-5.1711,7.65154-4.74368,3.88883-7.67256,5.15008-6.06098,1.89187-9.39626,1.89187-6.46738-.63062-9.39626-1.89187-5.4794-2.97794-7.65154-5.15008-3.88883-4.72266-5.15008-7.65154-1.89187-6.06098-1.89187-9.39626v-36.19769h12.02386v36.19769c0,1.65363.31531,3.20916.94593,4.6666s1.49247,2.73269,2.58555,3.82577,2.37534,1.95493,3.84679,2.58555,3.03399.94593,4.68762.94593,3.21617-.31531,4.68762-.94593,2.75372-1.49247,3.84679-2.58555,1.95493-2.36834,2.58555-3.82577.94593-3.01297.94593-4.6666v-36.19769h12.0659v36.19769Z"/>
    <path class="cls-2" d="m627.02825,715.50348h-12.0659v-12.0659h-24.13179v12.0659h-12.02386v-36.15565c0-3.33529.63062-6.46738,1.89187-9.39626s2.97794-5.48641,5.15008-7.67256,4.72266-3.90986,7.65154-5.1711,6.06098-1.89187,9.39626-1.89187,6.46738.63062,9.39626,1.89187,5.48641,2.98494,7.67256,5.1711,3.90986,4.74368,5.1711,7.67256,1.89187,6.06098,1.89187,9.39626v36.15565Zm-12.0659-24.08975v-12.0659c0-1.65363-.31531-3.21617-.94593-4.68762s-1.49247-2.75372-2.58555-3.84679-2.37534-1.95493-3.84679-2.58555-3.03399-.94593-4.68762-.94593-3.21617.31531-4.68762.94593-2.75372,1.49247-3.84679,2.58555-1.95493,2.37534-2.58555,3.84679-.94593,3.03399-.94593,4.68762v12.0659h24.13179Z"/>
  </g>
  <g>
    <path class="cls-1" d="m372.97175,761.62833l8.54755-19.69482h.20533l8.54755,19.69482h-4.32448l-5.4584-13.85007,2.7028-1.85383-6.53868,15.7039h-3.68167Zm5.84391-6.84877h5.68971l1.31327,3.14111h-8.1612l1.15822-3.14111Z"/>
    <path class="cls-1" d="m393.02695,742.6794h3.73364v18.94893h-3.73364v-18.94893Z"/>
    <path class="cls-1" d="m415.76064,742.6794c1.56134,0,2.88382.26316,3.96494.78612s1.90495,1.26047,2.47149,2.2142c.56654.95206.84981,2.08011.84981,3.38583,0,.77103-.11649,1.54877-.3478,2.32986s-.6009,1.48843-1.1071,2.12369-1.1842,1.14481-2.03401,1.53201c-.84981.38552-1.89238.57827-3.12771.57827h-2.67766v5.99896h-3.73364v-18.94893h5.74167Zm.64364,9.3211c.56654,0,1.03838-.09889,1.41635-.29668.37713-.19779.67298-.44586.88752-.74589.21455-.30171.36959-.61347.46346-.94032.0947-.32685.14164-.60844.14164-.84981,0-.18941-.03017-.4425-.08967-.7593-.06034-.31679-.18522-.63862-.37378-.96547s-.47603-.60006-.86238-.82467c-.38635-.22293-.90512-.33355-1.55715-.33355h-2.67766v5.71569h2.65168Z"/>
    <path class="cls-1" d="m425.23427,752.17984c0-1.30405.24891-2.53937.74673-3.70765.49782-1.1666,1.18839-2.20079,2.07257-3.10256.88333-.9001,1.90914-1.60911,3.07658-2.12369,1.1666-.51458,2.42037-.77271,3.75878-.77271,1.32165,0,2.56536.25813,3.7328.77271s2.20163,1.22359,3.10256,2.12369c.90093.90177,1.60492,1.93596,2.11112,3.10256.5062,1.16828.7593,2.40361.7593,3.70765,0,1.33925-.2531,2.59134-.7593,3.75962-.5062,1.1666-1.21018,2.19241-2.11112,3.07574-.90093.88501-1.93512,1.57559-3.10256,2.0734s-2.41115.74589-3.7328.74589c-1.33841,0-2.59217-.24807-3.75878-.74589-1.16744-.49782-2.19325-1.18839-3.07658-2.0734-.88417-.88333-1.57475-1.90914-2.07257-3.07574-.49782-1.16828-.74673-2.42037-.74673-3.75962Zm3.86186,0c0,.84143.15002,1.62587.45089,2.35667.30003.72913.72075,1.37277,1.26131,1.93093.54056.55648,1.1666.99061,1.87897,1.29902.71237.31009,1.48926.46429,2.33069.46429.80623,0,1.55715-.15421,2.25275-.46429.69477-.30841,1.29986-.74254,1.81444-1.29902.51542-.55816.91853-1.2018,1.21018-1.93093.29165-.7308.43748-1.51524.43748-2.35667,0-.85819-.15002-1.65604-.45005-2.39355-.30087-.73918-.71237-1.38618-1.23616-1.94434s-1.13727-.99061-1.84042-1.3007c-.70399-.30841-1.46747-.46262-2.2913-.46262s-1.58816.15421-2.2913.46262c-.70399.31009-1.32249.74254-1.85383,1.3007-.53218.55816-.94451,1.20516-1.23616,1.94434-.29165.73751-.43748,1.53536-.43748,2.39355Z"/>
    <path class="cls-1" d="m445.16124,742.80846h4.37644l4.04205,11.894-.59168-.25645,3.52747-8.7797,1.72476,5.12401-5.4584,11.71297-7.62064-19.69482Zm9.50045,0h3.70682l4.66055,11.50848-.66962-.10225,3.47551-11.40623h4.01691l-7.31223,19.64454-7.87793-19.64454Z"/>
    <path class="cls-1" d="m473.12034,742.6794h12.92483v3.60541h-9.1912v4.04121h8.13522v3.60541h-8.13522v4.09317h9.55157v3.60373h-13.2852v-18.94893Z"/>
    <path class="cls-1" d="m496.00824,742.6794c1.1842,0,2.24018.15085,3.16709.45089.92608.30003,1.70381.72913,2.33069,1.28729.62521.55816,1.10123,1.22695,1.42808,2.00803.32517.78109.48944,1.66107.48944,2.63994,0,.77103-.11565,1.54374-.34696,2.31645-.23299.77271-.61012,1.47669-1.13308,2.11028-.52464.63526-1.21521,1.14649-2.0734,1.53201-.85819.38719-1.92255.57995-3.19224.57995h-2.67766v6.0241h-3.73364v-18.94893h5.74167Zm.64364,9.3211c.56654,0,1.03838-.09554,1.41635-.28327.37713-.18941.67298-.4291.88752-.72075s.36959-.59671.46346-.91518c.0947-.31679.14164-.61347.14164-.88836,0-.20617-.03017-.46765-.08967-.78444-.06034-.31679-.18522-.63862-.37378-.96547s-.47603-.60006-.86238-.82467c-.38635-.22293-.90512-.33355-1.55715-.33355h-2.67766v5.71569h2.65168Zm3.50149,2.31645l4.68653,7.31139h-4.3513l-4.78961-7.20914,4.45438-.10225Z"/>
    <path class="cls-1" d="m507.92905,742.6794h12.92483v3.60541h-9.19203v4.04121h8.13606v3.60541h-8.13606v4.09317h9.55241v3.60373h-13.2852v-18.94893Z"/>
    <path class="cls-1" d="m525.07444,761.62833v-18.94893h5.6654c1.90411,0,3.52663.28327,4.86588.84981,1.33757.56654,2.41534,1.32249,3.22995,2.26616.81629.94368,1.413,1.99965,1.79013,3.16626.37713,1.16828.56654,2.34326.56654,3.52663,0,1.40797-.2531,2.67347-.7593,3.79817s-1.19845,2.08514-2.0734,2.88299c-.87495.79953-1.88735,1.40797-3.03719,1.82869s-2.36841.63023-3.65569.63023h-6.59232Zm3.73447-3.60373h2.2142c.94368,0,1.80187-.12404,2.57457-.37378.77103-.24807,1.43646-.61347,1.99462-1.09453.55816-.47938.98726-1.08447,1.28729-1.81528.30003-.72913.45089-1.56553.45089-2.5092,0-1.23533-.20281-2.24437-.60509-3.02546-.40395-.78109-.90177-1.38618-1.49345-1.81528s-1.19677-.7241-1.81528-.88836c-.6185-.16259-1.14146-.24472-1.57056-.24472h-3.03719v11.76661Z"/>
    <path class="cls-1" d="m551.15541,761.62833l8.54839-19.69482h.20449l8.54839,19.69482h-4.32448l-5.45924-13.85007,2.70364-1.85383-6.53868,15.7039h-3.68251Zm5.84475-6.84877h5.68887l1.31411,3.14111h-8.1612l1.15822-3.14111Z"/>
    <path class="cls-1" d="m568.7651,752.17984c0-1.30405.24975-2.53937.74757-3.70765.49782-1.1666,1.18839-2.20079,2.07173-3.10256.88333-.9001,1.90914-1.60911,3.07742-2.12369,1.1666-.51458,2.42037-.77271,3.75794-.77271,1.32249,0,2.56619.25813,3.7328.77271,1.16828.51458,2.20247,1.22359,3.10256,2.12369.90177.90177,1.60576,1.93596,2.11196,3.10256.5062,1.16828.7593,2.40361.7593,3.70765,0,1.33925-.2531,2.59134-.7593,3.75962-.5062,1.1666-1.21018,2.19241-2.11196,3.07574-.9001.88501-1.93428,1.57559-3.10256,2.0734-1.1666.49782-2.41031.74589-3.7328.74589-1.33757,0-2.59134-.24807-3.75794-.74589-1.16828-.49782-2.19409-1.18839-3.07742-2.0734-.88333-.88333-1.57391-1.90914-2.07173-3.07574-.49782-1.16828-.74757-2.42037-.74757-3.75962Zm3.86186,0c0,.82467.15085,1.60073.45089,2.32986.30003.7308.72075,1.37445,1.26214,1.93093.53972.55816,1.1666.99228,1.87897,1.3007s1.48843.46262,2.32986.46262c.80623,0,1.55715-.15421,2.25275-.46262s1.3007-.73751,1.81528-1.28729.91853-1.18839,1.21018-1.91752c.29165-.7308.43748-1.51524.43748-2.35667,0-.82299-.15085-1.60073-.45089-2.32986s-.71237-1.36774-1.23533-1.91752c-.52464-.54978-1.13811-.97887-1.84042-1.28729-.70399-.31009-1.46831-.46429-2.2913-.46429-.82467,0-1.58899.15421-2.2913.46429-.70399.30841-1.32249.73751-1.85383,1.28729-.53302.54978-.94535,1.18839-1.237,1.91752s-.43748,1.50686-.43748,2.32986Zm10.68549,5.79279h5.86989v3.65569h-10.76259l4.8927-3.65569Z"/>
    <path class="cls-1" d="m596.26242,754.62535c0,.60174.17935,1.17666.53972,1.72476.36037.54978.83808.99564,1.42976,1.33925s1.23868.51458,1.94266.51458c.77271,0,1.45993-.17097,2.05999-.51458.60174-.34361,1.07777-.78947,1.42976-1.33925.35199-.5481.52799-1.12302.52799-1.72476v-11.94596h3.68084v12.02306c0,1.39121-.34361,2.62318-1.02916,3.69592-.68722,1.07274-1.61414,1.91249-2.78074,2.52261-1.16828.60844-2.46395.9135-3.88868.9135-1.40629,0-2.69023-.30506-3.84845-.9135-1.15822-.61012-2.08178-1.44987-2.76733-2.52261-.68722-1.07274-1.02916-2.30471-1.02916-3.69592v-12.02306h3.7328v11.94596Z"/>
    <path class="cls-1" d="m609.72697,761.62833l8.54839-19.69482h.20449l8.54839,19.69482h-4.32448l-5.45924-13.85007,2.70364-1.85383-6.53868,15.7039h-3.68251Zm5.84475-6.84877h5.68887l1.31411,3.14111h-8.1612l1.15822-3.14111Z"/>
  </g>
  <g>
    <path class="cls-3" d="m484.22022,608.58452c-75.52784-219.91935.49133-353.82547,11.2255-371.0878-10.38451.74441-20.62649,4.03673-29.74861,9.87989l-7.52759,4.82179c-25.50833,89.98604-15.01069,272.14407-15.01069,272.14407-31.90663-98.13704-18.82087-229.79411-16.28468-252.09777l-52.66898,33.73714c-18.25296,11.69191-29.29371,31.87568-29.29371,53.55218v129.10786c0,21.6765,11.04075,41.86027,29.29371,53.55221l31.08309,19.91029c-.3024-.48235-.57449-.97162-.80659-1.46895,0,0-9.53682-68.34732,0-144.11219,0,0,7.15265,121.32975,32.31929,163.71568,9.63206,6.85345,19.2641,13.70692,28.89615,20.56037,5.80485,3.71831,12.06315,6.40426,18.52308,8.05786"/>
    <path class="cls-2" d="m625.79483,305.98184l-19.04281-12.19789c-17.94287,21.87429-29.6781,41.15474-37.23015,55.18671-3.36628,6.25487-8.42543,16.70909-18.54385,37.61752-5.38404,11.12554-10.1418,21.14554-15.71117,34.1414-2.81244,6.56252-4.80484,11.48175-5.7467,13.80768-5.95456,14.705-11.92542,29.40345-17.88152,44.10784,4.15494-39.47735,14.75152-91.58867,41.65743-147.05932,6.70716-13.8278,13.79175-26.54862,20.97128-38.19635l9.3046-14.45352c-19.1081-19.89992-41.58433-26.63683-41.58433-26.63683-2.32646,4.66045-4.58468,9.29017-6.77946,13.89103l-.0435.08904.00105.00074c-66.54964,139.54723-73.00827,251.78423-47.85485,342.30462.09642.3471.19339.69396.2908,1.04053,7.28149,1.31435,20.23838,2.51278,34.51284-2.74752,4.79942-1.76867,8.85862-3.93976,12.18841-6.07824l91.49194-58.6052c18.25293-11.69194,29.29371-31.87571,29.29371-53.55221v-129.10786c0-21.6765-11.04078-41.86027-29.29371-53.55218Z"/>
  </g>
</svg>