<svg xmlns="http://www.w3.org/2000/svg" width="146.208" height="247.471" viewBox="0 0 146.208 247.471">
  <g id="AIQUA" transform="translate(-344.911 -237.497)">
    <g id="Group_1" data-name="Group 1" transform="translate(358.138 434.04)">
      <path id="Path_1" data-name="Path 1" d="M395.7,683.634h-5.687v-5.687H378.639v5.688h-5.668V666.591a11.079,11.079,0,0,1,.892-4.429,11.571,11.571,0,0,1,2.428-3.617,11.366,11.366,0,0,1,3.607-2.437,11.444,11.444,0,0,1,8.858,0,11.406,11.406,0,0,1,6.054,6.054,11.077,11.077,0,0,1,.892,4.429v17.043Zm-5.687-11.355v-5.688a5.549,5.549,0,0,0-.446-2.209,5.677,5.677,0,0,0-3.032-3.032,5.7,5.7,0,0,0-4.419,0,5.676,5.676,0,0,0-3.032,3.032,5.551,5.551,0,0,0-.446,2.209v5.688Z" transform="translate(-372.972 -654.859)" fill="#084571"/>
      <path id="Path_2" data-name="Path 2" d="M437.349,683.634h-5.687V655.216h5.688Z" transform="translate(-403.997 -654.859)" fill="#084571"/>
      <path id="Path_3" data-name="Path 3" d="M477.215,688.921h-6.46l-3.408-5.113a3.727,3.727,0,0,1-.525.04h-.486a14.365,14.365,0,0,1-3.894-.525,14.8,14.8,0,0,1-10.285-10.285,14.737,14.737,0,0,1,0-7.8,14.513,14.513,0,0,1,1.486-3.508,14.951,14.951,0,0,1,2.309-2.973,14.541,14.541,0,0,1,2.982-2.3,14.991,14.991,0,0,1,3.508-1.477,14.744,14.744,0,0,1,7.8,0,14.669,14.669,0,0,1,10.255,10.255,14.653,14.653,0,0,1-.059,7.986,14.8,14.8,0,0,1-4.241,6.8,14.753,14.753,0,0,1-3.379,2.318Zm-1.843-19.777a8.788,8.788,0,0,0-.713-3.518,9.007,9.007,0,0,0-4.806-4.806,9.054,9.054,0,0,0-7.045,0,9.281,9.281,0,0,0-2.874,1.932,9.048,9.048,0,0,0-1.942,2.873,8.792,8.792,0,0,0-.713,3.518,8.652,8.652,0,0,0,.713,3.5,9.158,9.158,0,0,0,4.816,4.806,9.05,9.05,0,0,0,7.045,0,9.04,9.04,0,0,0,2.874-1.942,9.318,9.318,0,0,0,1.932-2.864A8.648,8.648,0,0,0,475.372,669.144Z" transform="translate(-414.554 -654.459)" fill="#084571"/>
      <path id="Path_4" data-name="Path 4" d="M543.94,672.279a11.077,11.077,0,0,1-.892,4.429,11.366,11.366,0,0,1-2.437,3.607,11.564,11.564,0,0,1-3.616,2.428,11.444,11.444,0,0,1-8.858,0,11.334,11.334,0,0,1-6.034-6.034,11.079,11.079,0,0,1-.892-4.429V655.216h5.668v17.063a5.483,5.483,0,0,0,.446,2.2,5.7,5.7,0,0,0,3.032,3.022,5.7,5.7,0,0,0,4.419,0,5.7,5.7,0,0,0,3.032-3.022,5.479,5.479,0,0,0,.446-2.2V655.216h5.687Z" transform="translate(-451.335 -654.859)" fill="#084571"/>
      <path id="Path_5" data-name="Path 5" d="M601.537,683.634h-5.687v-5.687H584.474v5.688h-5.668V666.591a11.077,11.077,0,0,1,.892-4.429,11.56,11.56,0,0,1,2.427-3.617,11.364,11.364,0,0,1,3.607-2.437,11.444,11.444,0,0,1,8.858,0,11.409,11.409,0,0,1,6.054,6.054,11.077,11.077,0,0,1,.892,4.429Zm-5.687-11.355v-5.688a5.547,5.547,0,0,0-.446-2.209,5.677,5.677,0,0,0-3.032-3.032,5.7,5.7,0,0,0-4.419,0,5.676,5.676,0,0,0-3.032,3.032,5.553,5.553,0,0,0-.446,2.209v5.688Z" transform="translate(-481.782 -654.859)" fill="#084571"/>
    </g>
    <g id="Group_2" data-name="Group 2" transform="translate(358.138 475.272)">
      <path id="Path_6" data-name="Path 6" d="M372.972,751.217,377,741.933h.1l4.029,9.283h-2.039l-2.573-6.528,1.274-.874-3.082,7.4h-1.735Zm2.755-3.228h2.682l.619,1.48H375.18Z" transform="translate(-372.972 -741.933)" fill="#494744"/>
      <path id="Path_7" data-name="Path 7" d="M393.027,742.679h1.76v8.932h-1.76Z" transform="translate(-383.574 -742.328)" fill="#494744"/>
      <path id="Path_8" data-name="Path 8" d="M412.725,742.679a4.272,4.272,0,0,1,1.869.37,2.664,2.664,0,0,1,1.165,1.044,3.064,3.064,0,0,1,.4,1.6,3.852,3.852,0,0,1-.164,1.1,2.924,2.924,0,0,1-.522,1,2.549,2.549,0,0,1-.959.722,3.558,3.558,0,0,1-1.474.272h-1.262v2.828h-1.76v-8.932Zm.3,4.394a1.429,1.429,0,0,0,.668-.14,1.164,1.164,0,0,0,.418-.352,1.539,1.539,0,0,0,.285-.844,2.05,2.05,0,0,0-.042-.358,1.462,1.462,0,0,0-.176-.455,1.081,1.081,0,0,0-.406-.389,1.47,1.47,0,0,0-.734-.157h-1.262v2.694Z" transform="translate(-392.556 -742.328)" fill="#494744"/>
      <path id="Path_9" data-name="Path 9" d="M425.234,747.048a4.411,4.411,0,0,1,.352-1.748,4.711,4.711,0,0,1,.977-1.462,4.632,4.632,0,0,1,1.45-1,4.464,4.464,0,0,1,3.531,0,4.782,4.782,0,0,1,1.462,1,4.7,4.7,0,0,1,1,1.462,4.347,4.347,0,0,1,.358,1.748,4.407,4.407,0,0,1-.358,1.772,4.546,4.546,0,0,1-1,1.45,4.7,4.7,0,0,1-1.462.977,4.61,4.61,0,0,1-3.531,0,4.571,4.571,0,0,1-2.427-2.427A4.472,4.472,0,0,1,425.234,747.048Zm1.82,0a2.888,2.888,0,0,0,.213,1.111,2.857,2.857,0,0,0,.594.91,2.71,2.71,0,0,0,1.984.831,2.574,2.574,0,0,0,1.917-.831,2.936,2.936,0,0,0,.57-.91,3,3,0,0,0-.589-3.156,2.633,2.633,0,0,0-.868-.613,2.784,2.784,0,0,0-2.16,0,2.691,2.691,0,0,0-.874.613,2.8,2.8,0,0,0-.583.916,3.041,3.041,0,0,0-.206,1.128Z" transform="translate(-400.599 -742.219)" fill="#494744"/>
      <path id="Path_10" data-name="Path 10" d="M445.161,742.808h2.063l1.905,5.607-.279-.121,1.663-4.138.813,2.415-2.573,5.521Zm4.478,0h1.747l2.2,5.425-.316-.048,1.638-5.376H456.8l-3.447,9.26Z" transform="translate(-411.133 -742.396)" fill="#494744"/>
      <path id="Path_11" data-name="Path 11" d="M473.12,742.679h6.093v1.7H474.88v1.905h3.835v1.7H474.88v1.929h4.5v1.7H473.12v-8.932Z" transform="translate(-425.913 -742.328)" fill="#494744"/>
      <path id="Path_12" data-name="Path 12" d="M492.973,742.679a4.853,4.853,0,0,1,1.493.212,3.033,3.033,0,0,1,1.1.607,2.594,2.594,0,0,1,.673.947,3.206,3.206,0,0,1,.231,1.244,3.789,3.789,0,0,1-.163,1.092,2.839,2.839,0,0,1-.534.995,2.656,2.656,0,0,1-.977.722,3.658,3.658,0,0,1-1.505.273h-1.262v2.84h-1.76V742.68h2.706Zm.3,4.394a1.5,1.5,0,0,0,.667-.133,1.141,1.141,0,0,0,.419-.34,1.394,1.394,0,0,0,.218-.431,1.466,1.466,0,0,0,.067-.419,2.081,2.081,0,0,0-.042-.37,1.46,1.46,0,0,0-.176-.455,1.08,1.08,0,0,0-.407-.389,1.468,1.468,0,0,0-.734-.157h-1.262v2.694Zm1.651,1.092,2.209,3.446h-2.051l-2.258-3.4Z" transform="translate(-434.977 -742.328)" fill="#494744"/>
      <path id="Path_13" data-name="Path 13" d="M507.929,742.679h6.092v1.7h-4.333v1.905h3.835v1.7h-3.835v1.929h4.5v1.7h-6.262Z" transform="translate(-444.314 -742.328)" fill="#494744"/>
      <path id="Path_14" data-name="Path 14" d="M525.074,751.611V742.68h2.67a5.877,5.877,0,0,1,2.294.4,4.062,4.062,0,0,1,1.522,1.068,4.271,4.271,0,0,1,.844,1.492,5.382,5.382,0,0,1,.267,1.662,4.313,4.313,0,0,1-.358,1.791,4.083,4.083,0,0,1-.977,1.359,4.275,4.275,0,0,1-1.432.862,4.977,4.977,0,0,1-1.723.3Zm1.76-1.7h1.044a3.935,3.935,0,0,0,1.214-.176,2.682,2.682,0,0,0,.94-.516,2.217,2.217,0,0,0,.607-.856,3.561,3.561,0,0,0-.073-2.609,2.382,2.382,0,0,0-.7-.856,2.6,2.6,0,0,0-.856-.419,3,3,0,0,0-.74-.115h-1.432Z" transform="translate(-453.378 -742.328)" fill="#494744"/>
      <path id="Path_15" data-name="Path 15" d="M551.155,751.217l4.03-9.283h.1l4.029,9.283h-2.038l-2.573-6.528,1.274-.874-3.082,7.4Zm2.755-3.228h2.681l.619,1.48h-3.847l.546-1.48Z" transform="translate(-467.165 -741.933)" fill="#494744"/>
      <path id="Path_16" data-name="Path 16" d="M568.765,747.048a4.407,4.407,0,0,1,.352-1.748,4.711,4.711,0,0,1,.977-1.462,4.623,4.623,0,0,1,1.45-1,4.463,4.463,0,0,1,3.531,0,4.774,4.774,0,0,1,1.462,1,4.689,4.689,0,0,1,1,1.462,4.349,4.349,0,0,1,.358,1.748,4.409,4.409,0,0,1-.358,1.772,4.546,4.546,0,0,1-1,1.45,4.7,4.7,0,0,1-1.462.977,4.608,4.608,0,0,1-3.531,0,4.57,4.57,0,0,1-2.427-2.427A4.468,4.468,0,0,1,568.765,747.048Zm1.82,0a2.862,2.862,0,0,0,.807,2.008,2.7,2.7,0,0,0,1.984.831,2.593,2.593,0,0,0,1.918-.825,2.874,2.874,0,0,0,.57-.9,2.972,2.972,0,0,0,.206-1.111,2.858,2.858,0,0,0-.213-1.1,2.893,2.893,0,0,0-.582-.9,2.675,2.675,0,0,0-.867-.607,2.776,2.776,0,0,0-2.16,0,2.728,2.728,0,0,0-.874.607,2.759,2.759,0,0,0-.583.9A2.932,2.932,0,0,0,570.585,747.048Zm5.037,2.73h2.767V751.5h-5.073Z" transform="translate(-476.474 -742.219)" fill="#494744"/>
      <path id="Path_17" data-name="Path 17" d="M594.289,748.31a1.457,1.457,0,0,0,.254.813,1.983,1.983,0,0,0,.674.631,1.792,1.792,0,0,0,.916.242,1.914,1.914,0,0,0,1.645-.874,1.48,1.48,0,0,0,.249-.813v-5.631h1.735v5.667a3.164,3.164,0,0,1-.485,1.742,3.39,3.39,0,0,1-1.311,1.189,3.91,3.91,0,0,1-1.833.43,3.843,3.843,0,0,1-1.814-.43,3.4,3.4,0,0,1-1.3-1.189,3.159,3.159,0,0,1-.485-1.742v-5.667h1.76Z" transform="translate(-489.037 -742.328)" fill="#494744"/>
      <path id="Path_18" data-name="Path 18" d="M609.727,751.217l4.029-9.283h.1l4.03,9.283h-2.038l-2.573-6.528,1.275-.874-3.082,7.4Zm2.755-3.228h2.681l.62,1.48h-3.847Z" transform="translate(-498.128 -741.933)" fill="#494744"/>
    </g>
    <g id="Group_3" data-name="Group 3" transform="translate(344.911 237.497)">
      <path id="Path_19" data-name="Path 19" d="M410.577,412.416c-35.6-103.663.232-166.782,5.291-174.919a29.941,29.941,0,0,0-14.023,4.657l-3.548,2.273c-12.024,42.417-7.076,128.28-7.076,128.28-15.04-46.259-8.872-108.318-7.676-118.831l-24.827,15.9a29.977,29.977,0,0,0-13.808,25.243v60.857a29.978,29.978,0,0,0,13.808,25.243l14.652,9.385a6.409,6.409,0,0,1-.38-.692,290.125,290.125,0,0,1,0-67.93s3.372,57.191,15.234,77.17l13.621,9.692a29.944,29.944,0,0,0,8.731,3.8" transform="translate(-344.911 -237.497)" fill="#02aae4"/>
      <path id="Path_20" data-name="Path 20" d="M545.411,277.6l-8.976-5.75a161.908,161.908,0,0,0-17.549,26.013c-1.587,2.948-3.972,7.876-8.741,17.732-2.538,5.244-4.78,9.967-7.406,16.093-1.326,3.093-2.265,5.412-2.709,6.509q-4.21,10.4-8.429,20.791a208.624,208.624,0,0,1,19.636-69.319,203.9,203.9,0,0,1,9.885-18l4.386-6.813a50.341,50.341,0,0,0-19.6-12.556q-1.645,3.3-3.2,6.548l-.021.042h0c-31.369,65.778-34.414,118.683-22.557,161.352l.137.491a31.128,31.128,0,0,0,16.268-1.3,29.5,29.5,0,0,0,5.745-2.865l43.126-27.625A29.977,29.977,0,0,0,559.219,363.7V302.846A29.977,29.977,0,0,0,545.411,277.6Z" transform="translate(-413.011 -245.322)" fill="#084571"/>
    </g>
  </g>
</svg>
