<svg xmlns="http://www.w3.org/2000/svg" xmlns:xlink="http://www.w3.org/1999/xlink" width="34.491" height="44.714" viewBox="0 0 34.491 44.714">
  <defs>
    <linearGradient id="linear-gradient" x1="0.248" y1="0.937" x2="0.752" y2="0.063" gradientUnits="objectBoundingBox">
      <stop offset="0" stop-color="#084571"/>
      <stop offset="0.573" stop-color="#02aae4"/>
      <stop offset="1" stop-color="#02aae4"/>
    </linearGradient>
  </defs>
  <path id="calculator" d="M87.26,0H62.23A4.235,4.235,0,0,0,58,4.23V39.484a4.235,4.235,0,0,0,4.23,4.23H87.26a4.235,4.235,0,0,0,4.23-4.23V4.23A4.235,4.235,0,0,0,87.26,0ZM67.518,36.928H64.874a1.41,1.41,0,1,1,0-2.82h2.644a1.41,1.41,0,1,1,0,2.82Zm0-6.169H64.874a1.41,1.41,0,1,1,0-2.82h2.644a1.41,1.41,0,1,1,0,2.82Zm0-6.169H64.874a1.41,1.41,0,1,1,0-2.82h2.644a1.41,1.41,0,1,1,0,2.82Zm8.549,12.339H73.423a1.41,1.41,0,0,1,0-2.82h2.644a1.41,1.41,0,1,1,0,2.82Zm0-6.169H73.423a1.41,1.41,0,0,1,0-2.82h2.644a1.41,1.41,0,1,1,0,2.82Zm0-6.169H73.423a1.41,1.41,0,0,1,0-2.82h2.644a1.41,1.41,0,1,1,0,2.82Zm9.959,10.929a1.41,1.41,0,0,1-1.41,1.41H81.972a1.41,1.41,0,0,1-1.41-1.41V23.179a1.41,1.41,0,0,1,1.41-1.41h2.644a1.41,1.41,0,0,1,1.41,1.41Zm0-22.474A3.529,3.529,0,0,1,82.5,16.569H66.99a3.529,3.529,0,0,1-3.525-3.525V8.637A3.529,3.529,0,0,1,66.99,5.112H82.5a3.529,3.529,0,0,1,3.525,3.525Z" transform="translate(-57.5 0.5)" stroke="rgba(0,0,0,0)" stroke-width="1" fill="url(#linear-gradient)"/>
</svg>
