<svg xmlns="http://www.w3.org/2000/svg" xmlns:xlink="http://www.w3.org/1999/xlink" width="36.005" height="40" viewBox="0 0 36.005 40">
  <defs>
    <linearGradient id="linear-gradient" x1="0.248" y1="0.937" x2="0.752" y2="0.063" gradientUnits="objectBoundingBox">
      <stop offset="0" stop-color="#084571"/>
      <stop offset="0.573" stop-color="#02aae4"/>
      <stop offset="1" stop-color="#02aae4"/>
    </linearGradient>
  </defs>
  <path id="diagram" d="M53.754,53.4v6.112A2.487,2.487,0,0,1,51.269,62H49.35a2.487,2.487,0,0,1-2.484-2.484V53.4A2.487,2.487,0,0,1,49.35,50.92h1.919A2.487,2.487,0,0,1,53.754,53.4ZM50.31,43.82a2.487,2.487,0,0,0,2.219-3.614l5.839-5.35a2.486,2.486,0,0,0,3.44-.819l4.758,1.338s0,0,0,0A2.489,2.489,0,1,0,71.189,34.1l6.076-6.411a2.465,2.465,0,0,0,1.162.289,2.491,2.491,0,1,0-2.134-1.21l-6.076,6.41a2.488,2.488,0,0,0-3.288.908l-4.758-1.338s0,0,0,0a2.489,2.489,0,1,0-4.708,1.126l-5.839,5.349a2.489,2.489,0,1,0-1.314,4.6Zm19.7,2.316H68.1a2.488,2.488,0,0,0-2.484,2.485v10.9A2.487,2.487,0,0,0,68.1,62h1.919A2.487,2.487,0,0,0,72.5,59.516V48.62A2.488,2.488,0,0,0,70.014,46.135Zm-9.372-2.9H58.723a2.488,2.488,0,0,0-2.484,2.485V59.516A2.487,2.487,0,0,0,58.723,62h1.919a2.487,2.487,0,0,0,2.484-2.484V45.725A2.488,2.488,0,0,0,60.642,43.24Zm18.745-7.176H77.468a2.487,2.487,0,0,0-2.484,2.485V59.516A2.487,2.487,0,0,0,77.468,62h1.919a2.487,2.487,0,0,0,2.484-2.484V38.549A2.487,2.487,0,0,0,79.387,36.064Z" transform="translate(-46.366 -22.5)" stroke="rgba(0,0,0,0)" stroke-width="1" fill="url(#linear-gradient)"/>
</svg>
