<svg width="40" height="44" viewBox="0 0 40 44" fill="none" xmlns="http://www.w3.org/2000/svg">
<g id="Group 16">
<g id="Group">
<path id="Vector" d="M17.965 43.2463C8.22508 17.6171 18.0284 2.01174 19.4126 0C18.0735 0.086753 16.7527 0.470439 15.5763 1.1514L14.6056 1.71332C11.3161 12.2002 12.6698 33.4288 12.6698 33.4288C8.55519 21.992 10.2427 6.64876 10.5698 4.04951L3.77767 7.98121C1.4238 9.34378 0 11.696 0 14.2221V29.2683C0 31.7945 1.4238 34.1467 3.77767 35.5092L7.78609 37.8296C7.74709 37.7733 7.712 37.7163 7.68207 37.6584C7.68207 37.6584 6.45222 29.6932 7.68207 20.8636C7.68207 20.8636 8.60447 35.0033 11.8499 39.9429C13.0921 40.7416 14.3342 41.5403 15.5763 42.339C16.3249 42.7724 17.132 43.0854 17.965 43.2781" fill="white"/>
<path id="Vector_2" d="M36.2224 7.98174L33.7666 6.5602C31.4528 9.10942 29.9394 11.3564 28.9655 12.9916C28.5314 13.7206 27.879 14.9389 26.5741 17.3755C25.8798 18.6721 25.2663 19.8398 24.548 21.3544C24.1854 22.1192 23.9284 22.6924 23.807 22.9635C23.0391 24.6772 22.2691 26.3902 21.501 28.1038C22.0368 23.5031 23.4033 17.4301 26.8731 10.9656C27.738 9.35412 28.6516 7.87165 29.5775 6.51423L30.7774 4.82982C28.3132 2.5107 25.4147 1.72559 25.4147 1.72559C25.1147 2.26871 24.8235 2.80826 24.5405 3.34444L24.5349 3.35481L24.535 3.3549C15.9529 19.6176 15.12 32.6977 18.3637 43.2469C18.3762 43.2873 18.3887 43.3277 18.4012 43.3681C19.3402 43.5213 21.0111 43.6609 22.8519 43.0479C23.4709 42.8418 23.9943 42.5888 24.4237 42.3396L36.2224 35.5098C38.5763 34.1472 40 31.795 40 29.2688V14.2227C40 11.6965 38.5762 9.34431 36.2224 7.98174Z" fill="white"/>
</g>
</g>
</svg>
