<svg id="_005-info" data-name="005-info" xmlns="http://www.w3.org/2000/svg" width="7.67" height="17.36" viewBox="0 0 7.67 17.36">
  <path id="Path_10157" data-name="Path 10157" d="M38.58,15.487l-.243.992q-1.092.431-1.742.656a4.594,4.594,0,0,1-1.51.226,3.015,3.015,0,0,1-2.055-.644,2.086,2.086,0,0,1-.733-1.637,5.79,5.79,0,0,1,.055-.788q.056-.4.177-.91l.909-3.219q.121-.462.2-.876a3.808,3.808,0,0,0,.083-.754,1.167,1.167,0,0,0-.255-.86,1.438,1.438,0,0,0-.973-.243,2.549,2.549,0,0,0-.723.11c-.247.073-.459.144-.636.209l.243-.992q.894-.364,1.71-.623a5.114,5.114,0,0,1,1.546-.259,2.942,2.942,0,0,1,2.024.634,2.1,2.1,0,0,1,.711,1.648c0,.14-.016.386-.049.739a4.94,4.94,0,0,1-.182.971l-.906,3.206a8.514,8.514,0,0,0-.2.883,4.546,4.546,0,0,0-.089.749,1.08,1.08,0,0,0,.285.871,1.61,1.61,0,0,0,.991.231,2.86,2.86,0,0,0,.749-.116A4.188,4.188,0,0,0,38.58,15.487Zm.23-13.459a1.876,1.876,0,0,1-.634,1.428,2.157,2.157,0,0,1-1.525.591,2.181,2.181,0,0,1-1.533-.591,1.872,1.872,0,0,1-.639-1.428A1.89,1.89,0,0,1,35.117.595a2.263,2.263,0,0,1,3.058,0A1.894,1.894,0,0,1,38.809,2.027Z" transform="translate(-31.139)" fill="#b6b7b7"/>
</svg>
