<svg xmlns="http://www.w3.org/2000/svg" xmlns:xlink="http://www.w3.org/1999/xlink" width="44.714" height="44.714" viewBox="0 0 44.714 44.714">
  <defs>
    <linearGradient id="linear-gradient" x1="0.248" y1="0.937" x2="0.752" y2="0.063" gradientUnits="objectBoundingBox">
      <stop offset="0" stop-color="#084571"/>
      <stop offset="0.573" stop-color="#02aae4"/>
      <stop offset="1" stop-color="#02aae4"/>
    </linearGradient>
  </defs>
  <g id="iot" transform="translate(94 8)">
    <path id="Path_10160" data-name="Path 10160" d="M44.224,24.848a1.49,1.49,0,0,0,0-2.981H39.752V18.886h4.471a1.49,1.49,0,1,0,0-2.981H39.752V11.433a4.477,4.477,0,0,0-4.471-4.471H30.809V2.49a1.49,1.49,0,1,0-2.981,0V6.962H24.848V2.49a1.49,1.49,0,0,0-2.981,0V6.962H18.886V2.49a1.49,1.49,0,1,0-2.981,0V6.962H11.433a4.477,4.477,0,0,0-4.471,4.471V15.9H2.49a1.49,1.49,0,0,0,0,2.981H6.962v2.981H2.49a1.49,1.49,0,0,0,0,2.981H6.962v2.981H2.49a1.49,1.49,0,0,0,0,2.981H6.962v4.471a4.477,4.477,0,0,0,4.471,4.471H15.9v4.471a1.49,1.49,0,1,0,2.981,0V39.752h2.981v4.471a1.49,1.49,0,0,0,2.981,0V39.752h2.981v4.471a1.49,1.49,0,1,0,2.981,0V39.752h4.471a4.477,4.477,0,0,0,4.471-4.471V30.809h4.471a1.49,1.49,0,1,0,0-2.981H39.752V24.848ZM36.771,35.281a1.493,1.493,0,0,1-1.49,1.49H11.433a1.493,1.493,0,0,1-1.49-1.49V11.433a1.493,1.493,0,0,1,1.49-1.49H35.281a1.493,1.493,0,0,1,1.49,1.49ZM15.9,18.886V29.319a1.49,1.49,0,0,1-2.981,0V18.886a1.49,1.49,0,0,1,2.981,0Zm5.962,2.981a4.471,4.471,0,1,0,4.471,4.471A4.477,4.477,0,0,0,21.867,21.867Zm0,5.962a1.49,1.49,0,1,1,1.49-1.49A1.493,1.493,0,0,1,21.867,27.828ZM33.79,18.886a1.49,1.49,0,0,1-1.49,1.49h-1.49v8.943a1.49,1.49,0,0,1-2.981,0V20.376h-1.49a1.49,1.49,0,0,1,0-2.981H32.3A1.49,1.49,0,0,1,33.79,18.886Z" transform="translate(-95 -9)" fill="url(#linear-gradient)"/>
  </g>
</svg>
