<svg xmlns="http://www.w3.org/2000/svg" width="52.751" height="89.287" viewBox="0 0 52.751 89.287">
  <g id="AIQUA" transform="translate(-344.911 -237.497)">
    <g id="Group_1" data-name="Group 1" transform="translate(349.684 308.409)">
      <path id="Path_1" data-name="Path 1" d="M381.173,665.469h-2.052v-2.052h-4.1v2.052h-2.045V659.32a4,4,0,0,1,.322-1.6,4.174,4.174,0,0,1,.876-1.3,4.1,4.1,0,0,1,1.3-.879,4.129,4.129,0,0,1,3.2,0,4.115,4.115,0,0,1,2.184,2.184,4,4,0,0,1,.322,1.6v6.149Zm-2.052-4.1V659.32a2,2,0,0,0-.161-.8,2.049,2.049,0,0,0-1.094-1.094,2.056,2.056,0,0,0-1.594,0,2.048,2.048,0,0,0-1.094,1.094,2,2,0,0,0-.161.8v2.052Z" transform="translate(-372.972 -655.087)" fill="#084571"/>
      <path id="Path_2" data-name="Path 2" d="M433.714,665.469h-2.052V655.216h2.052Z" transform="translate(-421.68 -655.087)" fill="#084571"/>
      <path id="Path_3" data-name="Path 3" d="M460.862,666.893h-2.331l-1.23-1.845a1.344,1.344,0,0,1-.189.014h-.175a5.183,5.183,0,0,1-1.4-.189,5.34,5.34,0,0,1-3.711-3.711,5.317,5.317,0,0,1,0-2.813,5.236,5.236,0,0,1,.536-1.266,5.4,5.4,0,0,1,.833-1.073,5.247,5.247,0,0,1,1.076-.829,5.409,5.409,0,0,1,1.266-.533,5.319,5.319,0,0,1,2.814,0,5.293,5.293,0,0,1,3.7,3.7,5.286,5.286,0,0,1-.021,2.881,5.339,5.339,0,0,1-1.53,2.452,5.323,5.323,0,0,1-1.219.836Zm-.665-7.136a3.171,3.171,0,0,0-.257-1.269,3.249,3.249,0,0,0-1.734-1.734,3.267,3.267,0,0,0-2.542,0,3.348,3.348,0,0,0-1.037.7,3.264,3.264,0,0,0-.7,1.037,3.172,3.172,0,0,0-.257,1.269,3.121,3.121,0,0,0,.257,1.262,3.3,3.3,0,0,0,1.737,1.734,3.266,3.266,0,0,0,2.542,0,3.262,3.262,0,0,0,1.037-.7,3.362,3.362,0,0,0,.7-1.033A3.12,3.12,0,0,0,460.2,659.758Z" transform="translate(-438.254 -654.459)" fill="#084571"/>
      <path id="Path_4" data-name="Path 4" d="M529.411,661.372a4,4,0,0,1-.322,1.6,4.1,4.1,0,0,1-.879,1.3,4.172,4.172,0,0,1-1.3.876,4.129,4.129,0,0,1-3.2,0,4.089,4.089,0,0,1-2.177-2.177,4,4,0,0,1-.322-1.6v-6.156h2.045v6.156a1.978,1.978,0,0,0,.161.794,2.058,2.058,0,0,0,1.094,1.09,2.056,2.056,0,0,0,1.594,0,2.058,2.058,0,0,0,1.094-1.09,1.977,1.977,0,0,0,.161-.794v-6.156h2.052Z" transform="translate(-496 -655.087)" fill="#084571"/>
      <path id="Path_5" data-name="Path 5" d="M587.008,665.469h-2.052v-2.052h-4.1v2.052h-2.045V659.32a4,4,0,0,1,.322-1.6,4.171,4.171,0,0,1,.876-1.3,4.1,4.1,0,0,1,1.3-.879,4.129,4.129,0,0,1,3.2,0,4.116,4.116,0,0,1,2.184,2.184,4,4,0,0,1,.322,1.6Zm-2.052-4.1V659.32a2,2,0,0,0-.161-.8,2.048,2.048,0,0,0-1.094-1.094,2.056,2.056,0,0,0-1.594,0,2.048,2.048,0,0,0-1.094,1.094,2,2,0,0,0-.161.8v2.052Z" transform="translate(-543.801 -655.087)" fill="#084571"/>
    </g>
    <g id="Group_2" data-name="Group 2" transform="translate(349.684 323.285)">
      <path id="Path_6" data-name="Path 6" d="M372.972,745.283l1.454-3.349h.035l1.454,3.349h-.735l-.928-2.355.46-.315-1.112,2.671h-.626Zm.994-1.165h.968l.223.534h-1.388Z" transform="translate(-372.972 -741.934)" fill="#494744"/>
      <path id="Path_7" data-name="Path 7" d="M393.027,742.68h.635V745.9h-.635Z" transform="translate(-389.616 -742.553)" fill="#494744"/>
      <path id="Path_8" data-name="Path 8" d="M411,742.679a1.541,1.541,0,0,1,.674.134.961.961,0,0,1,.42.377,1.105,1.105,0,0,1,.145.576,1.391,1.391,0,0,1-.059.4,1.055,1.055,0,0,1-.188.361.92.92,0,0,1-.346.26,1.284,1.284,0,0,1-.532.1h-.455v1.02h-.635v-3.223Zm.109,1.585a.515.515,0,0,0,.241-.051.421.421,0,0,0,.151-.127.556.556,0,0,0,.1-.3.74.74,0,0,0-.015-.129.528.528,0,0,0-.064-.164.39.39,0,0,0-.147-.14.53.53,0,0,0-.265-.057h-.455v.972Z" transform="translate(-403.719 -742.553)" fill="#494744"/>
      <path id="Path_9" data-name="Path 9" d="M425.234,744.124a1.592,1.592,0,0,1,.127-.631,1.7,1.7,0,0,1,.352-.528,1.671,1.671,0,0,1,.523-.361,1.611,1.611,0,0,1,1.274,0,1.725,1.725,0,0,1,.528.361,1.7,1.7,0,0,1,.359.528,1.569,1.569,0,0,1,.129.631,1.59,1.59,0,0,1-.129.639,1.64,1.64,0,0,1-.359.523,1.7,1.7,0,0,1-.528.353,1.663,1.663,0,0,1-1.274,0,1.649,1.649,0,0,1-.876-.876A1.613,1.613,0,0,1,425.234,744.124Zm.657,0a1.042,1.042,0,0,0,.077.4,1.031,1.031,0,0,0,.215.328.978.978,0,0,0,.716.3.929.929,0,0,0,.692-.3,1.059,1.059,0,0,0,.206-.328,1.084,1.084,0,0,0-.212-1.138.949.949,0,0,0-.313-.221,1,1,0,0,0-.779,0,.971.971,0,0,0-.315.221,1.012,1.012,0,0,0-.21.331,1.1,1.1,0,0,0-.074.407Z" transform="translate(-416.346 -742.382)" fill="#494744"/>
      <path id="Path_10" data-name="Path 10" d="M445.161,742.808h.744l.687,2.023-.1-.044.6-1.493.293.871-.928,1.992Zm1.616,0h.63l.793,1.957-.114-.017.591-1.94h.683l-1.244,3.341Z" transform="translate(-432.884 -742.66)" fill="#494744"/>
      <path id="Path_11" data-name="Path 11" d="M473.12,742.68h2.2v.613h-1.563v.687h1.384v.613h-1.384v.7h1.624v.613H473.12V742.68Z" transform="translate(-456.088 -742.553)" fill="#494744"/>
      <path id="Path_12" data-name="Path 12" d="M491.243,742.68a1.749,1.749,0,0,1,.539.077,1.093,1.093,0,0,1,.4.219.936.936,0,0,1,.243.342,1.157,1.157,0,0,1,.083.449,1.367,1.367,0,0,1-.059.394,1.024,1.024,0,0,1-.193.359.957.957,0,0,1-.353.261,1.32,1.32,0,0,1-.543.1H490.9V745.9h-.635V742.68h.976Zm.109,1.585a.54.54,0,0,0,.241-.048.411.411,0,0,0,.151-.123.5.5,0,0,0,.079-.156.53.53,0,0,0,.024-.151.751.751,0,0,0-.015-.133.527.527,0,0,0-.064-.164.389.389,0,0,0-.147-.14.529.529,0,0,0-.265-.057H490.9v.972h.451Zm.6.394.8,1.243h-.74l-.815-1.226Z" transform="translate(-470.318 -742.553)" fill="#494744"/>
      <path id="Path_13" data-name="Path 13" d="M507.929,742.68h2.2v.613h-1.563v.687h1.384v.613h-1.384v.7h1.625v.613h-2.259Z" transform="translate(-484.977 -742.553)" fill="#494744"/>
      <path id="Path_14" data-name="Path 14" d="M525.074,745.9V742.68h.963a2.121,2.121,0,0,1,.828.145,1.466,1.466,0,0,1,.549.385,1.54,1.54,0,0,1,.3.538,1.942,1.942,0,0,1,.1.6,1.556,1.556,0,0,1-.129.646,1.473,1.473,0,0,1-.353.49,1.543,1.543,0,0,1-.517.311,1.8,1.8,0,0,1-.622.107Zm.635-.613h.377a1.421,1.421,0,0,0,.438-.064.968.968,0,0,0,.339-.186.8.8,0,0,0,.219-.309,1.285,1.285,0,0,0-.026-.941.859.859,0,0,0-.254-.309.936.936,0,0,0-.309-.151,1.085,1.085,0,0,0-.267-.042h-.517Z" transform="translate(-499.207 -742.553)" fill="#494744"/>
      <path id="Path_15" data-name="Path 15" d="M551.155,745.283l1.454-3.349h.035l1.454,3.349h-.735l-.928-2.355.46-.315-1.112,2.671Zm.994-1.165h.967l.223.534h-1.388l.2-.534Z" transform="translate(-520.852 -741.934)" fill="#494744"/>
      <path id="Path_16" data-name="Path 16" d="M568.765,744.124a1.591,1.591,0,0,1,.127-.631,1.7,1.7,0,0,1,.352-.528,1.668,1.668,0,0,1,.523-.361,1.61,1.61,0,0,1,1.274,0,1.722,1.722,0,0,1,.528.361,1.693,1.693,0,0,1,.359.528,1.569,1.569,0,0,1,.129.631,1.591,1.591,0,0,1-.129.639,1.64,1.64,0,0,1-.359.523,1.693,1.693,0,0,1-.528.353,1.663,1.663,0,0,1-1.274,0,1.649,1.649,0,0,1-.876-.876A1.612,1.612,0,0,1,568.765,744.124Zm.657,0a1.033,1.033,0,0,0,.291.725.975.975,0,0,0,.716.3.936.936,0,0,0,.692-.3,1.036,1.036,0,0,0,.206-.326,1.072,1.072,0,0,0,.074-.4,1.032,1.032,0,0,0-.077-.4,1.044,1.044,0,0,0-.21-.326.957.957,0,0,0-.7-.3.955.955,0,0,0-.39.079.984.984,0,0,0-.315.219,1,1,0,0,0-.21.326A1.057,1.057,0,0,0,569.422,744.124Zm1.817.985h1v.622h-1.83Z" transform="translate(-535.467 -742.382)" fill="#494744"/>
      <path id="Path_17" data-name="Path 17" d="M593.164,744.711a.525.525,0,0,0,.092.293.715.715,0,0,0,.243.228.647.647,0,0,0,.33.088.691.691,0,0,0,.594-.315.534.534,0,0,0,.09-.293V742.68h.626v2.045a1.142,1.142,0,0,1-.175.628,1.223,1.223,0,0,1-.473.429,1.411,1.411,0,0,1-.661.155,1.387,1.387,0,0,1-.654-.155,1.226,1.226,0,0,1-.471-.429,1.14,1.14,0,0,1-.175-.628V742.68h.635Z" transform="translate(-555.19 -742.553)" fill="#494744"/>
      <path id="Path_18" data-name="Path 18" d="M609.727,745.283l1.454-3.349h.035l1.454,3.349h-.735l-.928-2.355.46-.315-1.112,2.671Zm.994-1.165h.967l.224.534h-1.388Z" transform="translate(-569.463 -741.934)" fill="#494744"/>
    </g>
    <g id="Group_3" data-name="Group 3" transform="translate(344.911 237.497)">
      <path id="Path_19" data-name="Path 19" d="M368.6,300.607c-12.845-37.4.084-60.174,1.909-63.11a10.8,10.8,0,0,0-5.059,1.68l-1.28.82c-4.338,15.3-2.553,46.283-2.553,46.283-5.426-16.69-3.2-39.081-2.77-42.874l-8.957,5.738a10.816,10.816,0,0,0-4.982,9.108v21.957a10.816,10.816,0,0,0,4.982,9.108l5.286,3.386a2.31,2.31,0,0,1-.137-.25,104.676,104.676,0,0,1,0-24.509s1.216,20.634,5.5,27.843l4.914,3.5a10.8,10.8,0,0,0,3.15,1.37" transform="translate(-344.911 -237.497)" fill="#02aae4"/>
      <path id="Path_20" data-name="Path 20" d="M499.595,261.429l-3.239-2.075a58.416,58.416,0,0,0-6.332,9.386c-.573,1.064-1.433,2.842-3.154,6.4-.916,1.892-1.725,3.6-2.672,5.806-.478,1.116-.817,1.953-.977,2.348q-1.519,3.751-3.041,7.5a75.271,75.271,0,0,1,7.085-25.01,73.564,73.564,0,0,1,3.567-6.5l1.582-2.458a18.163,18.163,0,0,0-7.072-4.53q-.593,1.189-1.153,2.362l-.007.015h0c-11.318,23.733-12.416,42.82-8.139,58.215l.049.177a11.23,11.23,0,0,0,5.869-.467,10.646,10.646,0,0,0,2.073-1.034l15.56-9.967a10.816,10.816,0,0,0,4.982-9.107V270.536a10.816,10.816,0,0,0-4.982-9.108Z" transform="translate(-451.826 -249.782)" fill="#084571"/>
    </g>
  </g>
</svg>
