<svg xmlns="http://www.w3.org/2000/svg" xmlns:xlink="http://www.w3.org/1999/xlink" width="36.595" height="44.714" viewBox="0 0 36.595 44.714">
  <defs>
    <linearGradient id="linear-gradient" x1="0.248" y1="0.937" x2="0.752" y2="0.063" gradientUnits="objectBoundingBox">
      <stop offset="0" stop-color="#084571"/>
      <stop offset="0.573" stop-color="#02aae4"/>
      <stop offset="1" stop-color="#02aae4"/>
    </linearGradient>
  </defs>
  <path id="pie-chart" d="M32.7,0H6.894A4.957,4.957,0,0,0,2,5.009v33.7a4.957,4.957,0,0,0,4.894,5.009H32.7A4.957,4.957,0,0,0,37.6,38.705V5.009A4.957,4.957,0,0,0,32.7,0ZM17.573,23.679V14.71a9.1,9.1,0,0,1-1.335,18.076,8.68,8.68,0,0,1-5.256-1.8l6.2-6.344a1.377,1.377,0,0,0,.392-.965ZM14.9,14.71v8.4L9.1,29.057a9.157,9.157,0,0,1-1.757-5.379A9.03,9.03,0,0,1,14.9,14.71Zm16.018,24H8.674a1.366,1.366,0,0,1,0-2.732H30.921a1.366,1.366,0,0,1,0,2.732Zm0-5.92h-2.67a1.366,1.366,0,0,1,0-2.732h2.67a1.366,1.366,0,0,1,0,2.732Zm0-5.009h-2.67a1.366,1.366,0,0,1,0-2.732h2.67a1.366,1.366,0,0,1,0,2.732Zm0-5.464h-2.67a1.366,1.366,0,0,1,0-2.732h2.67a1.366,1.366,0,0,1,0,2.732Zm0-5.009h-2.67a1.366,1.366,0,0,1,0-2.732h2.67a1.366,1.366,0,0,1,0,2.732Z" transform="translate(-1.5 0.5)" stroke="rgba(0,0,0,0)" stroke-width="1" fill="url(#linear-gradient)"/>
</svg>
